<svg width="48" height="48" viewBox="0 0 48 48" fill="none" xmlns="http://www.w3.org/2000/svg">
<path d="M10.1273 16.1036C13.8782 17.0636 14.4836 21.2054 15.9491 23.14C17.8945 25.7091 19.7218 25.3727 21.7527 27.9473C25.0345 32.1091 24.1382 38.32 24.1382 40.1382M38.5454 29.4545H36.7273C34.7984 29.4545 32.9486 30.2208 31.5847 31.5847C30.2208 32.9486 29.4545 34.7984 29.4545 36.7273V38.5454M17.7945 9.43999C17.7945 10.9345 17.9982 12.8691 20.5491 14.1309C23.0982 15.3909 25.8545 14.7691 25.8545 18.3745C25.8545 18.8764 25.8545 22.0254 29.44 22.0254C33.1236 22.0818 33.1236 18.9745 33.1236 18.3745C33.1236 17.1927 34.0818 16.7382 35.2636 16.7382H38.5454M40.3636 24C40.3636 26.1489 39.9404 28.2768 39.118 30.2621C38.2957 32.2474 37.0903 34.0513 35.5708 35.5708C34.0513 37.0903 32.2474 38.2957 30.2621 39.118C28.2768 39.9404 26.1489 40.3636 24 40.3636C21.8511 40.3636 19.7232 39.9404 17.7379 39.118C15.7526 38.2957 13.9487 37.0903 12.4292 35.5708C10.9096 34.0513 9.70431 32.2474 8.88196 30.2621C8.05961 28.2768 7.63635 26.1489 7.63635 24C7.63635 19.6601 9.36037 15.4979 12.4292 12.4292C15.4979 9.36037 19.6601 7.63635 24 7.63635C28.3399 7.63635 32.502 9.36037 35.5708 12.4292C38.6396 15.4979 40.3636 19.6601 40.3636 24Z" stroke="#FBFBFB" stroke-width="1.5" stroke-linecap="round"/>
</svg>
