<svg width="48" height="48" viewBox="0 0 48 48" fill="none" xmlns="http://www.w3.org/2000/svg">
<path d="M40.3635 24C40.3635 28.3399 38.6395 32.502 35.5707 35.5708C32.5019 38.6396 28.3398 40.3636 23.9999 40.3636C21.1957 40.3636 18.5568 39.6574 16.2487 38.4155C13.0311 36.6809 10.8659 38.2932 8.95566 38.5826C8.81282 38.603 8.66716 38.5894 8.53063 38.5427C8.39409 38.4959 8.27058 38.4175 8.17021 38.3139C8.02036 38.1547 7.92119 37.9547 7.8853 37.7391C7.84942 37.5234 7.87844 37.302 7.96868 37.103C8.71968 35.3374 9.40696 31.9889 8.4682 29.1675C7.91542 27.5008 7.6345 25.756 7.63624 24C7.63624 19.6601 9.36026 15.4979 12.429 12.4291C15.4978 9.36037 19.66 7.63635 23.9999 7.63635C28.3398 7.63635 32.5019 9.36037 35.5707 12.4291C38.6395 15.4979 40.3635 19.6601 40.3635 24Z" stroke="#FBFBFB" stroke-width="1.5" stroke-linecap="round" stroke-linejoin="round"/>
<path d="M19.6936 19.6938C19.6939 18.9519 19.8858 18.2227 20.2508 17.5769C20.6157 16.931 21.1414 16.3904 21.7767 16.0074C22.4121 15.6244 23.1356 15.412 23.8772 15.3909C24.6187 15.3698 25.3531 15.5406 26.0093 15.8868C26.6654 16.2329 27.221 16.7428 27.6221 17.3668C28.0233 17.9908 28.2564 18.7079 28.299 19.4485C28.3415 20.1892 28.1919 20.9282 27.8648 21.5941C27.5377 22.2599 27.0442 22.83 26.432 23.249C25.2538 24.0551 23.9998 25.1575 23.9998 26.5837" stroke="#FBFBFB" stroke-width="1.5" stroke-linecap="round" stroke-linejoin="round"/>
<path d="M23.9998 31.7512H24.0153" stroke="#FBFBFB" stroke-width="1.5" stroke-linecap="round" stroke-linejoin="round"/>
</svg>
