<svg width="48" height="48" viewBox="0 0 48 48" fill="none" xmlns="http://www.w3.org/2000/svg">
<path d="M23.9999 40.3636C33.0373 40.3636 40.3635 33.0374 40.3635 24C40.3635 14.9626 33.0373 7.63635 23.9999 7.63635C14.9625 7.63635 7.63623 14.9626 7.63623 24C7.63623 33.0374 14.9625 40.3636 23.9999 40.3636Z" stroke="#FBFBFB" stroke-width="1.5"/>
<path d="M27.2727 30.5454C26.335 31.5796 25.2108 32.1818 23.9999 32.1818C22.789 32.1818 21.6648 31.5796 20.7272 30.5454M19.0908 23.1818C18.6228 22.6647 18.0599 22.3636 17.4545 22.3636C16.849 22.3636 16.2861 22.6647 15.8181 23.1818M32.1818 23.1818C31.7138 22.6647 31.1508 22.3636 30.5454 22.3636C29.9399 22.3636 29.377 22.6647 28.909 23.1818M23.9999 7.63635C23.2042 7.63633 22.4203 7.82976 21.7159 8.19997C21.0115 8.57019 20.4077 9.10609 19.9564 9.76151C19.5052 10.4169 19.22 11.1722 19.1255 11.9624C19.031 12.7525 19.1299 13.5538 19.4139 14.2971C19.6978 15.0405 20.1582 15.7037 20.7554 16.2296C21.3526 16.7555 22.0687 17.1284 22.842 17.3161C23.6154 17.5037 24.4227 17.5006 25.1945 17.3069C25.9664 17.1133 26.6796 16.7349 27.2727 16.2044" stroke="#FBFBFB" stroke-width="1.5" stroke-linecap="round"/>
</svg>
