<svg width="48" height="48" viewBox="0 0 48 48" fill="none" xmlns="http://www.w3.org/2000/svg">
<path d="M19.9075 20.7273C19.9075 25.0914 19.0893 29.454 15.8166 33.8182M28.0892 20.7273C28.0892 25.0914 28.9074 29.454 32.1801 33.8182M17.4529 20.7273H30.5437M29.7255 13.2474C29.7258 14.4447 29.3364 15.6096 28.6161 16.566C28.0532 17.3187 27.4903 17.4545 26.5674 17.4545H21.4293C20.5064 17.4545 19.9435 17.3171 19.3806 16.566C18.6603 15.6096 18.2709 14.4447 18.2711 13.2474C18.2711 10.1482 20.8353 7.63635 23.9983 7.63635C27.1614 7.63635 29.7255 10.1482 29.7255 13.2474ZM11.243 38.1529L11.2757 38.0662C12.6552 34.5382 13.7352 33.8182 17.6542 33.8182H30.3457C34.2648 33.8182 35.3448 34.5382 36.7209 38.0662L36.7553 38.1529C37.4491 39.93 37.1366 40.3636 35.1615 40.3636H12.8385C10.8634 40.3636 10.5492 39.93 11.243 38.1529Z" stroke="#FBFBFB" stroke-width="1.5" stroke-linecap="round" stroke-linejoin="round"/>
</svg>
