<svg width="48" height="48" viewBox="0 0 48 48" fill="none" xmlns="http://www.w3.org/2000/svg">
<path d="M24.5454 28.0909C29.4545 35.4545 39.2727 35.4054 39.2727 27.2727C39.2727 20.7273 32.7272 15.8182 24.5454 7.63635C16.3636 15.8182 9.81812 20.7273 9.81812 27.2727C9.81812 35.4054 19.6363 35.4545 24.5454 28.0909Z" stroke="#FBFBFB" stroke-width="1.5" stroke-linecap="round" stroke-linejoin="round"/>
<path d="M23.6781 29.7158L18.769 38.9204C18.6893 39.07 18.6497 39.2377 18.6541 39.4072C18.6585 39.5767 18.7067 39.7422 18.7941 39.8875C18.8814 40.0328 19.0049 40.1531 19.1525 40.2365C19.3 40.3199 19.4667 40.3637 19.6363 40.3636H29.4545C29.624 40.3637 29.7907 40.3199 29.9383 40.2365C30.0859 40.1531 30.2094 40.0328 30.2967 39.8875C30.384 39.7422 30.4322 39.5767 30.4366 39.4072C30.441 39.2377 30.4014 39.07 30.3217 38.9204L25.4126 29.7158C25.3291 29.5583 25.2042 29.4266 25.0514 29.3347C24.8986 29.2428 24.7237 29.1942 24.5454 29.1942C24.3671 29.1942 24.1921 29.2428 24.0394 29.3347C23.8866 29.4266 23.7617 29.5583 23.6781 29.7158Z" stroke="#FBFBFB" stroke-width="1.5" stroke-linecap="round"/>
</svg>
